# xmcd CD database file
#
# Track frame offsets:
#	150
#	46365
#	73508
#	93161
#	118630
#	127550
#	165050
#	196960
#	197746
#	227055
#
# Disc length: 4756 seconds
#
# Revision: 0
# Processed by: cddbd v1.5.1PL0 Copyright (c) Steve Scherf et al.
# Submitted via: CDex 1.51
#
DISCID=7312920a
DTITLE=big satan - Souls Saved Hear
DYEAR=2004
DGENRE=Jazz
TTITLE0=Ce Sont les Noms des Mots
TTITLE1=Hostility Suite
TTITLE2=Geez
TTITLE3=Rampe
TTITLE4=Emportez-Moi
TTITLE5=Deadpan
TTITLE6=Mr. Subliminal
TTITLE7=Property Shark
TTITLE8=Plaintain Surgery
TTITLE9=a bonus film
EXTD=YEAR: 2004
EXTT0=
EXTT1=
EXTT2=
EXTT3=
EXTT4=
EXTT5=
EXTT6=
EXTT7=
EXTT8=
EXTT9=
PLAYORDER=
